<svg width="41" height="19" viewBox="0 0 41 19" fill="none" xmlns="http://www.w3.org/2000/svg">
<path d="M1.60156 7.71916H35.5193L29.9007 2.53663C29.2737 1.95829 29.2713 1.0184 29.8953 0.437315C30.5193 -0.143849 31.5334 -0.146001 32.1603 0.432268L40.5288 8.15143C40.5294 8.15188 40.5298 8.1524 40.5302 8.15284C41.1556 8.73119 41.1576 9.67411 40.5304 10.2544C40.5298 10.2548 40.5294 10.2553 40.529 10.2558L32.1605 17.975C31.5336 18.5532 30.5195 18.5511 29.8955 17.9699C29.2715 17.3888 29.2739 16.4489 29.9008 15.8706L35.5193 10.6881H1.60156C0.717022 10.6881 0 10.0235 0 9.20361C0 8.38375 0.717022 7.71916 1.60156 7.71916Z" fill="#80D737"/>
</svg>
